<?xml version="1.0" encoding="UTF-8"?>
<svg width="425px" height="272px" viewBox="0 0 425 272" version="1.1" xmlns="http://www.w3.org/2000/svg" xmlns:xlink="http://www.w3.org/1999/xlink">
    <!-- Generator: Sketch 52.1 (67048) - http://www.bohemiancoding.com/sketch -->
    <title>GooglePay_mark_800_gray</title>
    <desc>Created with Sketch.</desc>
    <g id="Page-1" stroke="none" stroke-width="1" fill="none" fill-rule="evenodd">
        <g id="GooglePay_mark_800_gray">
            <g id="GPay-logo" transform="translate(48.759036, 76.981132)">
                <g id="Pay" transform="translate(143.569904, 7.624798)" fill="#3C4043">
                    <path d="M12.1771332,57.6434717 L12.1771332,96.3774447 L0.0751674892,96.3774447 L0.0751674892,0.762479784 L32.1716854,0.762479784 C39.9139368,0.609983827 47.4306857,3.58365499 52.9179124,9.07350943 C63.8923658,19.4432345 64.5688732,36.9040216 54.2709272,48.1124744 C53.8199223,48.5699623 53.3689173,49.0274501 52.9179124,49.484938 C47.2803507,54.8985445 40.3649417,57.6434717 32.1716854,57.6434717 L12.1771332,57.6434717 Z M12.1771332,12.5046685 L12.1771332,45.901283 L32.4723553,45.901283 C36.9824047,46.053779 41.342119,44.2238275 44.4239861,40.9451644 C50.7380552,34.3115903 50.5877202,23.6368733 44.0481487,17.2320431 C40.9662816,14.182124 36.8320697,12.5046685 32.4723553,12.5046685 L12.1771332,12.5046685 Z" id="Shape" fill-rule="nonzero"></path>
                    <path d="M89.5244796,28.8217358 C98.4694108,28.8217358 105.535155,31.2616712 110.721712,36.0652938 C115.908268,40.8689164 118.463963,47.5787385 118.463963,56.0422642 L118.463963,96.3774447 L106.88817,96.3774447 L106.88817,87.3039353 L106.361997,87.3039353 C101.325775,94.7762372 94.7110364,98.5123881 86.3674451,98.5123881 C79.3017011,98.5123881 73.2883019,96.3774447 68.5527501,92.107558 C63.8923658,88.1426631 61.2615037,82.2715687 61.4118387,76.0954825 C61.4118387,69.3094124 63.9675333,63.9720539 69.0037551,59.9309111 C74.0399768,55.8897682 80.8050509,53.9073208 89.2238097,53.9073208 C96.4398886,53.9073208 102.302953,55.2797844 106.963337,57.8722156 L106.963337,55.0510404 C106.963337,50.8574016 105.159317,46.8925067 102.002283,44.1475795 C98.7700808,41.2501563 94.6358689,39.6489488 90.351322,39.6489488 C83.586248,39.6489488 78.2493562,42.546372 74.3406468,48.3412183 L63.6668633,41.5551482 C69.3795925,33.0916226 78.0238538,28.8217358 89.5244796,28.8217358 Z M73.8896419,76.3242264 C73.8896419,79.5266415 75.3929916,82.5003127 77.8735188,84.3302642 C80.5795484,86.4652075 83.8869179,87.6089272 87.2694549,87.5326792 C92.3808442,87.5326792 97.266731,85.4739838 100.87477,81.8140809 C104.858647,78.0016819 106.88817,73.5030512 106.88817,68.3181887 C103.129795,65.2682695 97.8680709,63.74331 91.1029969,63.819558 C86.2171101,63.819558 82.0828982,65.0395256 78.7755287,67.4032129 C75.5433266,69.7669003 73.8896419,72.7405714 73.8896419,76.3242264 Z" id="Shape" fill-rule="nonzero"></path>
                    <polygon id="Path" points="184.912023 30.9566792 144.471914 125.122933 131.994111 125.122933 147.027609 92.1838059 120.493485 30.9566792 133.647796 30.9566792 152.815506 77.925434 153.041008 77.925434 171.757713 30.9566792"></polygon>
                </g>
                <g id="Super-G">
                    <path d="M106.813002,56.8809919 C106.813002,53.144841 106.512332,49.40869 105.910992,45.7487871 L54.8722671,45.7487871 L54.8722671,66.8694771 L84.1124204,66.8694771 C82.9097406,73.6555472 79.0010311,79.7553854 73.2883019,83.5677844 L73.2883019,97.2924205 L90.7271594,97.2924205 C100.949938,87.7614232 106.813002,73.6555472 106.813002,56.8809919 Z" id="Path" fill="#4285F4"></path>
                    <path d="M54.8722671,110.559569 C69.45476,110.559569 81.7822282,105.679698 90.7271594,97.2924205 L73.2883019,83.5677844 C68.4024152,86.9226954 62.1635136,88.8288949 54.8722671,88.8288949 C40.7407791,88.8288949 28.7891484,79.1454016 24.5046015,66.1832453 L6.53957156,66.1832453 L6.53957156,80.3653693 C15.7100052,98.893628 34.42671,110.559569 54.8722671,110.559569 Z" id="Path" fill="#34A853"></path>
                    <path d="M24.5046015,66.1832453 C22.2495768,59.3971752 22.2495768,52.0011213 24.5046015,45.1388032 L24.5046015,31.0329272 L6.53957156,31.0329272 C-1.20267983,46.5112668 -1.20267983,64.8107817 6.53957156,80.2891213 L24.5046015,66.1832453 Z" id="Path" fill="#FBBC04"></path>
                    <path d="M54.8722671,22.4931536 C62.6145185,22.3406577 70.0560999,25.3143288 75.6184941,30.7279353 L91.1029969,15.0208518 C81.2560558,5.71859838 68.3272477,0.609983827 54.8722671,0.762479784 C34.42671,0.762479784 15.7100052,12.5046685 6.53957156,31.0329272 L24.5046015,45.2150512 C28.7891484,32.1766469 40.7407791,22.4931536 54.8722671,22.4931536 Z" id="Path" fill="#EA4335"></path>
                </g>
            </g>
        </g>
    </g>
</svg>