<?xml version="1.0" encoding="UTF-8" standalone="no"?><!DOCTYPE svg PUBLIC "-//W3C//DTD SVG 1.1//EN"
    "http://www.w3.org/Graphics/SVG/1.1/DTD/svg11.dtd">
<svg version="1.1" xmlns="http://www.w3.org/2000/svg" xmlns:xlink="http://www.w3.org/1999/xlink"
    preserveAspectRatio="xMidYMid meet" viewBox="0 0 327.75 163.71" width="327.75" height="163.71">
    <defs>
        <path
            d="M155.01 130.62L142.91 130.62L142.91 35C162.17 35 172.87 35 175.01 35C182.75 34.85 190.27 37.82 195.75 43.31C206.73 53.68 207.41 71.14 197.11 82.35C196.66 82.81 196.21 83.27 195.75 83.72C190.12 89.14 183.2 91.88 175.01 91.88C173.68 91.88 167.01 91.88 155.01 91.88L155.01 130.62ZM155.01 80.14C167.19 80.14 173.96 80.14 175.31 80.14C179.82 80.29 184.18 78.46 187.26 75.18C193.58 68.55 193.42 57.88 186.89 51.47C183.8 48.42 179.67 46.74 175.31 46.74C173.96 46.74 167.19 46.74 155.01 46.74L155.01 80.14Z"
            id="fLWdEO6v6"></path>
        <path
            d="M253.56 70.3C258.75 75.11 261.3 81.82 261.3 90.28C261.3 92.97 261.3 106.42 261.3 130.62L249.73 130.62L249.73 121.54C249.41 121.54 249.23 121.54 249.2 121.54C244.16 129.02 237.55 132.75 229.2 132.75C222.14 132.75 216.13 130.62 211.39 126.35C206.73 122.38 204.1 116.51 204.25 110.33C204.25 103.55 206.8 98.21 211.84 94.17C216.88 90.13 223.64 88.15 232.06 88.15C239.28 88.15 245.14 89.52 249.8 92.11C249.8 91.83 249.8 89.57 249.8 89.29C249.8 85.1 248 81.13 244.84 78.39C241.61 75.49 237.47 73.89 233.19 73.89C226.42 73.89 221.09 76.79 217.18 82.58C216.11 81.9 207.57 76.47 206.5 75.79C212.22 67.33 220.86 63.06 232.36 63.06C241.31 63.06 248.37 65.5 253.56 70.3ZM220.71 118.57C223.42 120.7 226.72 121.85 230.11 121.77C235.22 121.77 240.1 119.71 243.71 116.05C247.7 112.24 249.73 107.74 249.73 102.56C245.97 99.51 240.71 97.98 233.94 98.06C229.05 98.06 224.92 99.28 221.61 101.64C218.38 104.01 216.73 106.98 216.73 110.56C216.73 113.77 218.23 116.74 220.71 118.57Z"
            id="b6lN4hWHe"></path>
        <path
            d="M287.31 159.36L274.83 159.36L289.86 126.42L263.33 65.2L276.48 65.2L295.65 112.16L295.88 112.16L314.59 65.2L327.75 65.2L287.31 159.36Z"
            id="e18UMQ4H0k"></path>
        <path
            d="M105.18 72.36C101.78 72.36 84.76 72.36 54.14 72.36L54.14 93.48C71.68 93.48 81.43 93.48 83.38 93.48C82.18 100.27 78.27 106.37 72.56 110.18C72.56 111.1 72.56 115.67 72.56 123.91C83.02 123.91 88.83 123.91 89.99 123.91C100.22 114.38 106.08 100.27 106.08 83.5C106.08 79.76 105.78 76.02 105.18 72.36Z"
            id="dtbwblUV"></path>
        <path
            d="M89.99 123.91C88.25 122.53 74.3 111.55 72.56 110.18C67.67 113.54 61.43 115.44 54.14 115.44C40.01 115.44 28.06 105.76 23.77 92.8C22.57 92.8 16.59 92.8 5.81 92.8C5.81 101.31 5.81 106.03 5.81 106.98C14.98 125.51 33.69 137.17 54.14 137.17C68.72 137.17 81.05 132.29 89.99 123.91Z"
            id="aaB8GnRjZ"></path>
        <path
            d="M23.77 71.75C23.77 70.81 23.77 66.11 23.77 57.65C12.99 57.65 7 57.65 5.81 57.65C-1.94 73.13 -1.94 91.43 5.81 106.9C7 105.96 12.99 101.26 23.77 92.8C22.27 83.34 22.27 76.33 23.77 71.75Z"
            id="c7ZqlQCw64"></path>
        <path
            d="M74.89 57.34C76.43 55.77 88.82 43.21 90.37 41.64C80.52 32.33 67.59 27.22 54.14 27.38C33.69 27.38 14.98 39.12 5.81 57.65C7.6 59.07 21.98 70.41 23.77 71.83C28.06 58.79 40.01 49.11 54.14 49.11C61.88 48.96 69.32 51.93 74.89 57.34Z"
            id="f13flvChKt"></path>
    </defs>
    <g>
        <g>
            <g>
                <use xlink:href="#fLWdEO6v6" opacity="1" fill="#3c4043" fill-opacity="1"></use>
                <g>
                    <use xlink:href="#fLWdEO6v6" opacity="1" fill-opacity="0" stroke="#000000"
                        stroke-width="1" stroke-opacity="0"></use>
                </g>
            </g>
            <g>
                <use xlink:href="#b6lN4hWHe" opacity="1" fill="#3c4043" fill-opacity="1"></use>
                <g>
                    <use xlink:href="#b6lN4hWHe" opacity="1" fill-opacity="0" stroke="#000000"
                        stroke-width="1" stroke-opacity="0"></use>
                </g>
            </g>
            <g>
                <use xlink:href="#e18UMQ4H0k" opacity="1" fill="#3c4043" fill-opacity="1"></use>
                <g>
                    <use xlink:href="#e18UMQ4H0k" opacity="1" fill-opacity="0" stroke="#000000"
                        stroke-width="1" stroke-opacity="0"></use>
                </g>
            </g>
            <g>
                <use xlink:href="#dtbwblUV" opacity="1" fill="#4285f4" fill-opacity="1"></use>
                <g>
                    <use xlink:href="#dtbwblUV" opacity="1" fill-opacity="0" stroke="#000000"
                        stroke-width="1" stroke-opacity="0"></use>
                </g>
            </g>
            <g>
                <use xlink:href="#aaB8GnRjZ" opacity="1" fill="#34a853" fill-opacity="1"></use>
                <g>
                    <use xlink:href="#aaB8GnRjZ" opacity="1" fill-opacity="0" stroke="#000000"
                        stroke-width="1" stroke-opacity="0"></use>
                </g>
            </g>
            <g>
                <use xlink:href="#c7ZqlQCw64" opacity="1" fill="#fbbc04" fill-opacity="1"></use>
                <g>
                    <use xlink:href="#c7ZqlQCw64" opacity="1" fill-opacity="0" stroke="#000000"
                        stroke-width="1" stroke-opacity="0"></use>
                </g>
            </g>
            <g>
                <use xlink:href="#f13flvChKt" opacity="1" fill="#ea4335" fill-opacity="1"></use>
                <g>
                    <use xlink:href="#f13flvChKt" opacity="1" fill-opacity="0" stroke="#000000"
                        stroke-width="1" stroke-opacity="0"></use>
                </g>
            </g>
        </g>
    </g>
</svg>